#!OML:ASF H:\Terrain\Patient Classification 1\Animal1\Tuesday\Animal1.ASF
:FULLY-SPECIFIED
:DEGREES
3311
root -1.98213 17.3301 -14.1732 -1235.67 -175.655 -535.761
lowerback 7.24612 -3.99419 2.59399
upperback 1.014 -5.04606 1.4793
thorax -3.09198 -2.52405 0.574743
lowerneck -7.5125 1.01984 -3.77403
upperneck 1.15322 1.61745 2.59639
head 1.59799 0.847206 1.52953
rclavicle -7.81224e-014 2.26615e-014
rhumerus -72.1973 12.4373 -93.2969
rradius 64.789
rwrist -71.9436
rhand 35.8849 -365.241
rfingers 7.12502
rthumb 58.9054 -20.1216
lclavicle -7.81224e-014 2.26615e-014
lhumerus -67.733 -12.701 108.607
lradius 48.6952
lwrist 42.5337
lhand 36.7313 57.5116
lfingers 7.12502
lthumb 59.6348 -288.33
rfemur -63.5423 13.1507 -11.5991
rtibia 34.3095
rfoot 18.0304 -37.4806
rtoes 50.3611
lfemur -12.445 -14.0862 -24.5563
ltibia 32.5555
lfoot 28.0301 -4.8865
ltoes 24.9519
3312
root -2.10166 17.2239 -14.006 -1236.19 -176.6 -535.53
lowerback 7.51465 -3.82708 2.52154
upperback 1.12161 -4.8231 1.41952
thorax -3.12643 -2.41182 0.545088
lowerneck -7.64547 0.844661 -3.74748
upperneck 1.34727 1.38923 2.44735
head 1.69296 0.729339 1.47312
rclavicle 7.79236e-014 -2.26615e-014
rhumerus -72.4025 12.3661 -93.2745
rradius 64.9033
rwrist -72.4187
rhand 35.8423 -365.318
rfingers 7.12502
rthumb 58.8685 -20.2336
lclavicle 7.79236e-014 -2.26615e-014
lhumerus -68.0617 -12.8225 108.669
lradius 48.9942
lwrist 41.7262
lhand 38.0039 56.1758
lfingers 7.12502
lthumb 60.7209 -290.824
rfemur -62.5595 10.9658 -8.1759
rtibia 35.9424
rfoot 39.0868 -1.1335
rtoes -11.1095
lfemur -12.9976 -13.6959 -24.4853
ltibia 37.0648
lfoot 28.4283 -5.1842
ltoes 25.1705
3313
root -2.22427 17.121 -13.8413 -1236.82 -177.499 -535.12
lowerback 7.86736 -3.67418 2.14502
upperback 1.24275 -4.64416 1.30774
thorax -3.17438 -2.31842 0.638721
lowerneck -7.46384 0.667391 -3.80832
upperneck 1.22274 1.15415 2.40819
head 1.6279 0.610398 1.45902
rclavicle -5.68524e-014 1.03368e-014
rhumerus -72.5725 12.3588 -93.3791
rradius 65.0479
rwrist -72.9971
rhand 35.4877 -365.956
rfingers 7.12502
rthumb 58.5612 -21.1631
lclavicle -5.68524e-014 1.03368e-014
lhumerus -68.4333 -12.8591 108.694
lradius 49.4058
lwrist 41.1615
lhand 39.9504 53.512
lfingers 7.12502
lthumb 62.3541 -295.442
rfemur -61.585 8.87569 -5.14267
rtibia 37.8767
rfoot 37.2801 -3.99402
rtoes 2.04034
lfemur -13.5395 -13.3851 -24.5689
ltibia 41.7452
lfoot 28.9018 -3.60478
ltoes 29.125
3314
root -2.3485 16.9973 -13.6737 -1237.42 -178.489 -534.829
lowerback 8.21108 -3.55884 1.89765
upperback 1.34964 -4.50458 1.24697
thorax -3.23945 -2.24582 0.716812
lowerneck -7.19905 0.432054 -4.08847
upperneck 0.998474 0.8519 2.56335
head 1.51906 0.461323 1.54277
rclavicle -6.59965e-014 1.27222e-014
rhumerus -72.9109 12.4049 -93.5079
rradius 65.4022
rwrist -73.5783
rhand 34.063 -366.188
rfingers 7.12502
rthumb 57.3179 -22.5064
lclavicle -6.59965e-014 1.27222e-014
lhumerus -68.667 -12.8751 108.568
lradius 49.7654
lwrist 41.1979
lhand 40.2442 51.811
lfingers 7.12502
lthumb 62.5973 -297.459
rfemur -60.6631 6.84478 -2.10346
rtibia 40.1002
rfoot 35.264 -4.0133
rtoes 5.85843
lfemur -14.174 -12.9717 -24.4457
ltibia 46.5886
lfoot 29.3358 -1.83634
ltoes 31.7726
3315
root -2.46639 16.8647 -13.5069 -1237.99 -179.707 -534.633
lowerback 8.63002 -3.54111 1.89986
upperback 1.43219 -4.46835 1.23739
thorax -3.38731 -2.22667 0.726586
lowerneck -7.02638 0.256216 -4.25001
upperneck 0.840557 0.624724 2.59172
head 1.44614 0.347661 1.56964
rclavicle -2.66371e-014 3.97569e-015
rhumerus -73.2343 12.4926 -93.6296
rradius 65.5754
rwrist -73.4922
rhand 32.363 -365.59
rfingers 7.12502
rthumb 55.8179 -23.1205
lclavicle -2.66371e-014 3.97569e-015
lhumerus -68.8157 -12.8867 108.486
lradius 50.1556
lwrist 41.2923
lhand 39.9918 51.6291
lfingers 7.12502
lthumb 62.3884 -297.369
rfemur -59.6373 4.94635 0.681355
rtibia 42.3991
rfoot 32.5561 -1.62407
rtoes -4.48737
lfemur -14.9691 -12.6783 -24.1906
ltibia 51.4729
lfoot 29.8668 -0.664672
ltoes 30.7151
3316
root -2.5757 16.7376 -13.3397 -1238.7 -181.069 -534.504
lowerback 9.20058 -3.59369 2.0862
upperback 1.53589 -4.50108 1.25353
thorax -3.60937 -2.24304 0.678452
lowerneck -6.88138 0.10762 -4.49137
upperneck 0.651851 0.439208 2.69643
head 1.36792 0.256531 1.63729
rclavicle -1.66979e-014 -9.54166e-015
rhumerus -73.3916 12.724 -93.8194
rradius 65.4071
rwrist -73.0832
rhand 32.071 -364.844
rfingers 7.12502
rthumb 55.5586 -22.571
lclavicle -1.66979e-014 -9.54166e-015
lhumerus -69.0113 -12.6815 108.479
lradius 50.6392
lwrist 41.3543
lhand 40.5575 52.6621
lfingers 7.12502
lthumb 62.8557 -296.952
rfemur -58.3597 3.40373 2.8856
rtibia 44.677
rfoot 28.7936 1.71433
rtoes -19.2944
lfemur -15.7668 -12.597 -23.9189
ltibia 56.3063
lfoot 30.3519 -0.0456672
ltoes 28.596
